<mxfile host="app.diagrams.net" modified="2023-07-24T10:59:09.699Z" agent="Mozilla/5.0 (Macintosh; Intel Mac OS X 10_15_7) AppleWebKit/537.36 (KHTML, like Gecko) Chrome/114.0.0.0 Safari/537.36" etag="MWNZBAUVa9lWtoabD-Pv" version="21.6.5" type="device">
  <diagram name="‫עמוד-1‬" id="6LqjEw12jcSzKNV3xLup">
    <mxGraphModel dx="1363" dy="799" grid="1" gridSize="10" guides="1" tooltips="1" connect="1" arrows="1" fold="1" page="1" pageScale="1" pageWidth="827" pageHeight="1169" math="0" shadow="0">
      <root>
        <mxCell id="0" />
        <mxCell id="1" parent="0" />
        <mxCell id="CtcOnsRTVEBMsThImPpr-12" style="rounded=0;orthogonalLoop=1;jettySize=auto;html=1;entryX=0;entryY=0.5;entryDx=0;entryDy=0;" edge="1" parent="1" source="CtcOnsRTVEBMsThImPpr-1" target="CtcOnsRTVEBMsThImPpr-7">
          <mxGeometry relative="1" as="geometry" />
        </mxCell>
        <mxCell id="CtcOnsRTVEBMsThImPpr-13" style="rounded=0;orthogonalLoop=1;jettySize=auto;html=1;entryX=0;entryY=0.5;entryDx=0;entryDy=0;" edge="1" parent="1" source="CtcOnsRTVEBMsThImPpr-1" target="CtcOnsRTVEBMsThImPpr-3">
          <mxGeometry relative="1" as="geometry" />
        </mxCell>
        <mxCell id="CtcOnsRTVEBMsThImPpr-14" style="rounded=0;orthogonalLoop=1;jettySize=auto;html=1;entryX=0;entryY=0.5;entryDx=0;entryDy=0;" edge="1" parent="1" source="CtcOnsRTVEBMsThImPpr-1" target="CtcOnsRTVEBMsThImPpr-4">
          <mxGeometry relative="1" as="geometry" />
        </mxCell>
        <mxCell id="CtcOnsRTVEBMsThImPpr-15" style="rounded=0;orthogonalLoop=1;jettySize=auto;html=1;entryX=0;entryY=0.5;entryDx=0;entryDy=0;" edge="1" parent="1" source="CtcOnsRTVEBMsThImPpr-1" target="CtcOnsRTVEBMsThImPpr-5">
          <mxGeometry relative="1" as="geometry" />
        </mxCell>
        <mxCell id="CtcOnsRTVEBMsThImPpr-16" style="rounded=0;orthogonalLoop=1;jettySize=auto;html=1;entryX=0;entryY=0.5;entryDx=0;entryDy=0;" edge="1" parent="1" source="CtcOnsRTVEBMsThImPpr-1" target="CtcOnsRTVEBMsThImPpr-6">
          <mxGeometry relative="1" as="geometry" />
        </mxCell>
        <mxCell id="CtcOnsRTVEBMsThImPpr-17" style="rounded=0;orthogonalLoop=1;jettySize=auto;html=1;entryX=0;entryY=0.5;entryDx=0;entryDy=0;" edge="1" parent="1" source="CtcOnsRTVEBMsThImPpr-1" target="CtcOnsRTVEBMsThImPpr-10">
          <mxGeometry relative="1" as="geometry" />
        </mxCell>
        <mxCell id="CtcOnsRTVEBMsThImPpr-18" style="rounded=0;orthogonalLoop=1;jettySize=auto;html=1;entryX=0;entryY=0.5;entryDx=0;entryDy=0;" edge="1" parent="1" source="CtcOnsRTVEBMsThImPpr-1" target="CtcOnsRTVEBMsThImPpr-8">
          <mxGeometry relative="1" as="geometry" />
        </mxCell>
        <mxCell id="CtcOnsRTVEBMsThImPpr-19" style="rounded=0;orthogonalLoop=1;jettySize=auto;html=1;entryX=0;entryY=0.5;entryDx=0;entryDy=0;" edge="1" parent="1" source="CtcOnsRTVEBMsThImPpr-1" target="CtcOnsRTVEBMsThImPpr-9">
          <mxGeometry relative="1" as="geometry" />
        </mxCell>
        <mxCell id="CtcOnsRTVEBMsThImPpr-38" style="rounded=0;orthogonalLoop=1;jettySize=auto;html=1;entryX=0;entryY=0.5;entryDx=0;entryDy=0;" edge="1" parent="1" source="CtcOnsRTVEBMsThImPpr-1" target="CtcOnsRTVEBMsThImPpr-37">
          <mxGeometry relative="1" as="geometry" />
        </mxCell>
        <mxCell id="CtcOnsRTVEBMsThImPpr-1" value="player" style="shape=umlActor;verticalLabelPosition=bottom;verticalAlign=top;html=1;outlineConnect=0;" vertex="1" parent="1">
          <mxGeometry x="10" y="284" width="65" height="130" as="geometry" />
        </mxCell>
        <mxCell id="CtcOnsRTVEBMsThImPpr-3" value="generate maze" style="ellipse;whiteSpace=wrap;html=1;" vertex="1" parent="1">
          <mxGeometry x="340" y="160" width="120" height="60" as="geometry" />
        </mxCell>
        <mxCell id="CtcOnsRTVEBMsThImPpr-4" value="display" style="ellipse;whiteSpace=wrap;html=1;" vertex="1" parent="1">
          <mxGeometry x="340" y="240" width="120" height="60" as="geometry" />
        </mxCell>
        <mxCell id="CtcOnsRTVEBMsThImPpr-5" value="move" style="ellipse;whiteSpace=wrap;html=1;" vertex="1" parent="1">
          <mxGeometry x="340" y="320" width="120" height="60" as="geometry" />
        </mxCell>
        <mxCell id="CtcOnsRTVEBMsThImPpr-6" value="save maze" style="ellipse;whiteSpace=wrap;html=1;" vertex="1" parent="1">
          <mxGeometry x="340" y="400" width="120" height="60" as="geometry" />
        </mxCell>
        <mxCell id="CtcOnsRTVEBMsThImPpr-7" value="load maze" style="ellipse;whiteSpace=wrap;html=1;" vertex="1" parent="1">
          <mxGeometry x="340" y="80" width="120" height="60" as="geometry" />
        </mxCell>
        <mxCell id="CtcOnsRTVEBMsThImPpr-8" value="display solution" style="ellipse;whiteSpace=wrap;html=1;" vertex="1" parent="1">
          <mxGeometry x="340" y="640" width="120" height="60" as="geometry" />
        </mxCell>
        <mxCell id="CtcOnsRTVEBMsThImPpr-9" value="exit" style="ellipse;whiteSpace=wrap;html=1;" vertex="1" parent="1">
          <mxGeometry x="340" y="720" width="120" height="60" as="geometry" />
        </mxCell>
        <mxCell id="CtcOnsRTVEBMsThImPpr-10" value="maze size" style="ellipse;whiteSpace=wrap;html=1;" vertex="1" parent="1">
          <mxGeometry x="340" y="560" width="120" height="60" as="geometry" />
        </mxCell>
        <mxCell id="CtcOnsRTVEBMsThImPpr-31" style="rounded=0;orthogonalLoop=1;jettySize=auto;html=1;entryX=1;entryY=0.5;entryDx=0;entryDy=0;" edge="1" parent="1" source="CtcOnsRTVEBMsThImPpr-27" target="CtcOnsRTVEBMsThImPpr-3">
          <mxGeometry relative="1" as="geometry" />
        </mxCell>
        <mxCell id="CtcOnsRTVEBMsThImPpr-32" style="rounded=0;orthogonalLoop=1;jettySize=auto;html=1;entryX=1;entryY=0.5;entryDx=0;entryDy=0;" edge="1" parent="1" source="CtcOnsRTVEBMsThImPpr-27" target="CtcOnsRTVEBMsThImPpr-4">
          <mxGeometry relative="1" as="geometry" />
        </mxCell>
        <mxCell id="CtcOnsRTVEBMsThImPpr-35" style="rounded=0;orthogonalLoop=1;jettySize=auto;html=1;entryX=1;entryY=0.5;entryDx=0;entryDy=0;" edge="1" parent="1" source="CtcOnsRTVEBMsThImPpr-27" target="CtcOnsRTVEBMsThImPpr-33">
          <mxGeometry relative="1" as="geometry" />
        </mxCell>
        <mxCell id="CtcOnsRTVEBMsThImPpr-36" style="rounded=0;orthogonalLoop=1;jettySize=auto;html=1;entryX=1;entryY=0.5;entryDx=0;entryDy=0;" edge="1" parent="1" source="CtcOnsRTVEBMsThImPpr-27" target="CtcOnsRTVEBMsThImPpr-34">
          <mxGeometry relative="1" as="geometry" />
        </mxCell>
        <mxCell id="CtcOnsRTVEBMsThImPpr-60" style="rounded=0;orthogonalLoop=1;jettySize=auto;html=1;" edge="1" parent="1" source="CtcOnsRTVEBMsThImPpr-27" target="CtcOnsRTVEBMsThImPpr-5">
          <mxGeometry relative="1" as="geometry" />
        </mxCell>
        <mxCell id="CtcOnsRTVEBMsThImPpr-27" value="demo" style="shape=umlActor;verticalLabelPosition=bottom;verticalAlign=top;html=1;outlineConnect=0;" vertex="1" parent="1">
          <mxGeometry x="900" y="220" width="65" height="130" as="geometry" />
        </mxCell>
        <mxCell id="CtcOnsRTVEBMsThImPpr-55" style="rounded=0;orthogonalLoop=1;jettySize=auto;html=1;entryX=1;entryY=0.5;entryDx=0;entryDy=0;" edge="1" parent="1" source="CtcOnsRTVEBMsThImPpr-33" target="CtcOnsRTVEBMsThImPpr-50">
          <mxGeometry relative="1" as="geometry" />
        </mxCell>
        <mxCell id="CtcOnsRTVEBMsThImPpr-57" value="&amp;lt;&amp;lt;use&amp;gt;&amp;gt;" style="edgeLabel;html=1;align=center;verticalAlign=middle;resizable=0;points=[];" vertex="1" connectable="0" parent="CtcOnsRTVEBMsThImPpr-55">
          <mxGeometry x="0.3456" y="-3" relative="1" as="geometry">
            <mxPoint as="offset" />
          </mxGeometry>
        </mxCell>
        <mxCell id="CtcOnsRTVEBMsThImPpr-33" value="BFS" style="ellipse;whiteSpace=wrap;html=1;" vertex="1" parent="1">
          <mxGeometry x="680" y="480" width="120" height="60" as="geometry" />
        </mxCell>
        <mxCell id="CtcOnsRTVEBMsThImPpr-56" style="rounded=0;orthogonalLoop=1;jettySize=auto;html=1;entryX=1;entryY=0.5;entryDx=0;entryDy=0;" edge="1" parent="1" source="CtcOnsRTVEBMsThImPpr-34" target="CtcOnsRTVEBMsThImPpr-50">
          <mxGeometry relative="1" as="geometry" />
        </mxCell>
        <mxCell id="CtcOnsRTVEBMsThImPpr-58" value="&amp;lt;&amp;lt;use&amp;gt;&amp;gt;" style="edgeLabel;html=1;align=center;verticalAlign=middle;resizable=0;points=[];" vertex="1" connectable="0" parent="CtcOnsRTVEBMsThImPpr-56">
          <mxGeometry x="-0.4369" y="4" relative="1" as="geometry">
            <mxPoint as="offset" />
          </mxGeometry>
        </mxCell>
        <mxCell id="CtcOnsRTVEBMsThImPpr-34" value="Astar" style="ellipse;whiteSpace=wrap;html=1;" vertex="1" parent="1">
          <mxGeometry x="680" y="560" width="120" height="60" as="geometry" />
        </mxCell>
        <mxCell id="CtcOnsRTVEBMsThImPpr-39" style="rounded=0;orthogonalLoop=1;jettySize=auto;html=1;entryX=0;entryY=0.5;entryDx=0;entryDy=0;" edge="1" parent="1" source="CtcOnsRTVEBMsThImPpr-37" target="CtcOnsRTVEBMsThImPpr-33">
          <mxGeometry relative="1" as="geometry" />
        </mxCell>
        <mxCell id="CtcOnsRTVEBMsThImPpr-41" value="&amp;lt;&amp;lt;use&amp;gt;&amp;gt;" style="edgeLabel;html=1;align=center;verticalAlign=middle;resizable=0;points=[];" vertex="1" connectable="0" parent="CtcOnsRTVEBMsThImPpr-39">
          <mxGeometry x="0.31" y="-1" relative="1" as="geometry">
            <mxPoint as="offset" />
          </mxGeometry>
        </mxCell>
        <mxCell id="CtcOnsRTVEBMsThImPpr-40" style="rounded=0;orthogonalLoop=1;jettySize=auto;html=1;entryX=0;entryY=0.5;entryDx=0;entryDy=0;" edge="1" parent="1" source="CtcOnsRTVEBMsThImPpr-37" target="CtcOnsRTVEBMsThImPpr-34">
          <mxGeometry relative="1" as="geometry" />
        </mxCell>
        <mxCell id="CtcOnsRTVEBMsThImPpr-42" value="&amp;lt;&amp;lt;use&amp;gt;&amp;gt;" style="edgeLabel;html=1;align=center;verticalAlign=middle;resizable=0;points=[];" vertex="1" connectable="0" parent="CtcOnsRTVEBMsThImPpr-40">
          <mxGeometry x="0.116" y="-3" relative="1" as="geometry">
            <mxPoint as="offset" />
          </mxGeometry>
        </mxCell>
        <mxCell id="CtcOnsRTVEBMsThImPpr-37" value="solve" style="ellipse;whiteSpace=wrap;html=1;" vertex="1" parent="1">
          <mxGeometry x="340" y="480" width="120" height="60" as="geometry" />
        </mxCell>
        <mxCell id="CtcOnsRTVEBMsThImPpr-50" value="num of states" style="ellipse;whiteSpace=wrap;html=1;" vertex="1" parent="1">
          <mxGeometry x="340" y="800" width="120" height="60" as="geometry" />
        </mxCell>
        <mxCell id="CtcOnsRTVEBMsThImPpr-68" style="rounded=0;orthogonalLoop=1;jettySize=auto;html=1;entryX=0;entryY=0.5;entryDx=0;entryDy=0;" edge="1" parent="1" source="CtcOnsRTVEBMsThImPpr-59" target="CtcOnsRTVEBMsThImPpr-37">
          <mxGeometry relative="1" as="geometry" />
        </mxCell>
        <mxCell id="CtcOnsRTVEBMsThImPpr-69" style="rounded=0;orthogonalLoop=1;jettySize=auto;html=1;entryX=0;entryY=0.5;entryDx=0;entryDy=0;" edge="1" parent="1" source="CtcOnsRTVEBMsThImPpr-59" target="CtcOnsRTVEBMsThImPpr-5">
          <mxGeometry relative="1" as="geometry" />
        </mxCell>
        <mxCell id="CtcOnsRTVEBMsThImPpr-70" style="rounded=0;orthogonalLoop=1;jettySize=auto;html=1;entryX=0;entryY=0.5;entryDx=0;entryDy=0;" edge="1" parent="1" source="CtcOnsRTVEBMsThImPpr-59" target="CtcOnsRTVEBMsThImPpr-3">
          <mxGeometry relative="1" as="geometry" />
        </mxCell>
        <mxCell id="CtcOnsRTVEBMsThImPpr-73" style="rounded=0;orthogonalLoop=1;jettySize=auto;html=1;entryX=0;entryY=0.5;entryDx=0;entryDy=0;" edge="1" parent="1" source="CtcOnsRTVEBMsThImPpr-59" target="CtcOnsRTVEBMsThImPpr-72">
          <mxGeometry relative="1" as="geometry" />
        </mxCell>
        <mxCell id="CtcOnsRTVEBMsThImPpr-59" value="algorithm" style="shape=umlActor;verticalLabelPosition=bottom;verticalAlign=top;html=1;outlineConnect=0;" vertex="1" parent="1">
          <mxGeometry x="10" y="659" width="65" height="130" as="geometry" />
        </mxCell>
        <mxCell id="CtcOnsRTVEBMsThImPpr-72" value="run_time" style="ellipse;whiteSpace=wrap;html=1;" vertex="1" parent="1">
          <mxGeometry x="340" y="880" width="120" height="60" as="geometry" />
        </mxCell>
      </root>
    </mxGraphModel>
  </diagram>
</mxfile>
